# File created by Blade
# Date/Time:  Tue Jan 27 18:55:50 2015
# Frame Rate: 120.000 fps
#------------------------------------------------------
:FULLY-SPECIFIED
:DEGREES
2566
root -1.044830 32.966963 -5.796891 34.828046 -27.924527 -29.918311
Spine 5.385758 17.864325 5.246537
Head -5.529232 22.238684 8.874632
LeftShoulder -19.754679 21.705792 15.107568
LeftArm -16.112282 -51.329198 -67.158935
LeftForeArm -23.816866 0.000000 108.631627
LeftHand -13.997686 -0.000000 42.769187
LeftHandThumb1 -26.253704 0.000000 33.147579
RightShoulder 3.426101 17.341002 -4.552314
RightArm 35.454325 -54.327556 70.237834
RightForeArm -25.045162 -0.000000 27.816899
RightHand -15.283696 -0.000000 8.166267
RightHandThumb1 -24.326973 -0.000000 -32.862282
LeftUpLeg -28.141106 19.335742 9.767175
LeftLeg 19.085526 -0.000000 -0.000000
LeftFoot -40.278277 41.360912 -33.477748
LeftToeBase 10.285240 -0.000000 -0.000000
RightUpLeg -5.705932 -30.261837 -19.246235
RightLeg 17.366063 -0.000000 -0.000000
RightFoot -19.246372 -28.059220 11.582882
RightToeBase 4.817902 -0.000000 -0.000000
2567
root -1.034089 32.968706 -5.812430 35.002522 -28.065242 -29.946777
Spine 5.285065 17.871659 5.063565
Head -5.063394 21.887597 9.185460
LeftShoulder -19.783896 21.679912 15.087194
LeftArm -16.020543 -51.289721 -67.019752
LeftForeArm -23.646298 -0.000000 108.773791
LeftHand -13.927478 -0.000000 42.344084
LeftHandThumb1 -26.253704 0.000000 33.147579
RightShoulder 3.390327 17.194149 -4.599005
RightArm 35.315365 -54.013599 70.434357
RightForeArm -25.274753 -0.000000 28.051934
RightHand -15.063643 -0.000000 8.377498
RightHandThumb1 -24.326973 -0.000000 -32.862282
LeftUpLeg -28.272033 19.416824 9.671568
LeftLeg 19.020555 -0.000000 -0.000000
LeftFoot -40.267172 41.484967 -33.461994
LeftToeBase 10.343090 -0.000000 -0.000000
RightUpLeg -5.165657 -29.402777 -19.499114
RightLeg 13.861476 -0.000000 -0.000000
RightFoot -19.129331 -28.060819 11.896867
RightToeBase 4.550189 -0.000000 -0.000000
2568
root -1.024315 32.968416 -5.827357 35.165765 -28.161090 -29.921989
Spine 5.160751 17.840806 4.870842
Head -4.591372 21.493177 9.434675
LeftShoulder -19.823805 21.662273 15.043231
LeftArm -15.825792 -51.220886 -66.907055
LeftForeArm -23.519037 -0.000000 108.903615
LeftHand -13.894745 -0.000000 42.233855
LeftHandThumb1 -26.253704 0.000000 33.147579
RightShoulder 3.365396 17.086602 -4.673696
RightArm 34.958416 -53.640111 70.866208
RightForeArm -25.673400 -0.000000 28.312896
RightHand -15.154061 0.000000 8.375105
RightHandThumb1 -24.326973 -0.000000 -32.862282
LeftUpLeg -28.434825 19.475990 9.539149
LeftLeg 18.947787 -0.000000 -0.000000
LeftFoot -40.222044 41.558900 -33.413228
LeftToeBase 10.339451 -0.000000 -0.000000
RightUpLeg -4.676214 -28.804994 -19.734494
RightLeg 10.484310 -0.000000 -0.000000
RightFoot -18.879851 -28.179309 11.993032
RightToeBase 4.557883 -0.000000 -0.000000
2569
root -1.013446 32.968737 -5.846554 35.325627 -28.186435 -29.883357
Spine 5.035560 17.788972 4.709546
Head -4.128951 21.016709 9.662562
LeftShoulder -19.777818 21.640566 15.039615
LeftArm -15.658274 -51.178298 -66.815180
LeftForeArm -23.438608 -0.000000 109.092605
LeftHand -13.824744 -0.000000 42.326867
LeftHandThumb1 -26.253704 0.000000 33.147579
RightShoulder 3.251767 17.206565 -4.720913
RightArm 34.649286 -53.606086 71.053382
RightForeArm -25.708998 -0.000000 28.583753
RightHand -14.921966 -0.000000 8.519847
RightHandThumb1 -24.326973 -0.000000 -32.862282
LeftUpLeg -28.656162 19.545293 9.389534
LeftLeg 18.896633 -0.000000 -0.000000
LeftFoot -40.176676 41.604709 -33.387979
LeftToeBase 10.317862 -0.000000 -0.000000
RightUpLeg -4.266415 -28.294473 -19.918623
RightLeg 7.402691 -0.000000 -0.000000
RightFoot -18.558425 -28.264301 12.001319
RightToeBase 4.741604 -0.000000 -0.000000
